HIERARCHY
ROOT hip
{
  OFFSET 0 90.174 2.4664
  CHANNELS 6 Xposition Yposition Zposition Zrotation Xrotation Yrotation
  JOINT abdomen
  {
    OFFSET 0 -1.186 -1.5018
    CHANNELS 6 Xposition Yposition Zposition Zrotation Xrotation Yrotation
    JOINT abdomen2
    {
      OFFSET 0 9.964 0.2134
      CHANNELS 6 Xposition Yposition Zposition Zrotation Xrotation Yrotation
      JOINT chest
      {
        OFFSET 0 13.134 -3.2573
        CHANNELS 6 Xposition Yposition Zposition Zrotation Xrotation Yrotation
        JOINT neck
        {
          OFFSET 0 20.686 -1.6905
          CHANNELS 6 Xposition Yposition Zposition Zrotation Xrotation Yrotation
          JOINT head
          {
            OFFSET 0 7.238 -0.1237
            CHANNELS 6 Xposition Yposition Zposition Zrotation Xrotation Yrotation
            End Site
            {
              OFFSET 0 0 0
            }
          }
        }
        JOINT lCollar
        {
          OFFSET 1.7069 20.075 5.0056
          CHANNELS 6 Xposition Yposition Zposition Zrotation Xrotation Yrotation
          JOINT lShldr
          {
            OFFSET 13.6458 -0.047 -4.849
            CHANNELS 6 Xposition Yposition Zposition Zrotation Xrotation Yrotation
            JOINT lForeArm
            {
              OFFSET 28.3255 -0.9759 2.2888
              CHANNELS 6 Xposition Yposition Zposition Zrotation Xrotation Yrotation
              JOINT lHand
              {
                OFFSET 22.1583 -0.53 10.8316
                CHANNELS 6 Xposition Yposition Zposition Zrotation Xrotation Yrotation
                JOINT lThumb1
                {
                  OFFSET 0.786 0.112 2.5817
                  CHANNELS 6 Xposition Yposition Zposition Zrotation Xrotation Yrotation
                  JOINT lThumb2
                  {
                    OFFSET 0.3601 -0.878 4.2331
                    CHANNELS 6 Xposition Yposition Zposition Zrotation Xrotation Yrotation
                    JOINT lThumb2_End
                    {
                      OFFSET 1.8127 -1.216 2.2227
                      CHANNELS 6 Xposition Yposition Zposition Zrotation Xrotation Yrotation
                      End Site
                      {
                        OFFSET 0.0181 -0.0122 0.0222
                      }
                    }
                  }
                }
                JOINT lCarpal1
                {
                  OFFSET 0.9571 1.114 1.7695
                  CHANNELS 6 Xposition Yposition Zposition Zrotation Xrotation Yrotation
                  JOINT lIndex1
                  {
                    OFFSET 4.1246 0.487 4.1451
                    CHANNELS 6 Xposition Yposition Zposition Zrotation Xrotation Yrotation
                    JOINT lIndex2
                    {
                      OFFSET 3.4052 -1.454 2.7682
                      CHANNELS 6 Xposition Yposition Zposition Zrotation Xrotation Yrotation
                      JOINT lIndex2_End
                      {
                        OFFSET 1.4531 -1.795 1.2713
                        CHANNELS 6 Xposition Yposition Zposition Zrotation Xrotation Yrotation
                        End Site
                        {
                          OFFSET 0.0145 -0.0179 0.0127
                        }
                      }
                    }
                  }
                  JOINT lMid1
                  {
                    OFFSET 5.6954 0.21 2.1184
                    CHANNELS 6 Xposition Yposition Zposition Zrotation Xrotation Yrotation
                    JOINT lMid2
                    {
                      OFFSET 3.9766 -1.54 2.3863
                      CHANNELS 6 Xposition Yposition Zposition Zrotation Xrotation Yrotation
                      JOINT lMid2_End
                      {
                        OFFSET 1.4042 -1.926 1.125
                        CHANNELS 6 Xposition Yposition Zposition Zrotation Xrotation Yrotation
                        End Site
                        {
                          OFFSET 0.014 -0.0193 0.0113
                        }
                      }
                    }
                  }
                }
                JOINT lCarpal2
                {
                  OFFSET 2.0956 0.66 -0.3894
                  CHANNELS 6 Xposition Yposition Zposition Zrotation Xrotation Yrotation
                  JOINT lRing1
                  {
                    OFFSET 5.0395 -0.09 2.4971
                    CHANNELS 6 Xposition Yposition Zposition Zrotation Xrotation Yrotation
                    JOINT lRing2
                    {
                      OFFSET 3.7921 -1.552 1.4806
                      CHANNELS 6 Xposition Yposition Zposition Zrotation Xrotation Yrotation
                      JOINT lRing2_End
                      {
                        OFFSET 1.4655 -1.808 0.9609
                        CHANNELS 6 Xposition Yposition Zposition Zrotation Xrotation Yrotation
                        End Site
                        {
                          OFFSET 0.0147 -0.0181 0.0096
                        }
                      }
                    }
                  }
                  JOINT lPinky1
                  {
                    OFFSET 4.9141 -1.269 0.3591
                    CHANNELS 6 Xposition Yposition Zposition Zrotation Xrotation Yrotation
                    JOINT lPinky2
                    {
                      OFFSET 3.1477 -1.685 0.8462
                      CHANNELS 6 Xposition Yposition Zposition Zrotation Xrotation Yrotation
                      JOINT lPinky2_End
                      {
                        OFFSET 0.8055 -1.585 0.7955
                        CHANNELS 6 Xposition Yposition Zposition Zrotation Xrotation Yrotation
                        End Site
                        {
                          OFFSET 0.0081 -0.0158 0.008
                        }
                      }
                    }
                  }
                }
              }
            }
          }
        }
        JOINT rCollar
        {
          OFFSET -1.7069 20.075 5.0056
          CHANNELS 6 Xposition Yposition Zposition Zrotation Xrotation Yrotation
          JOINT rShldr
          {
            OFFSET -13.6458 -0.047 -4.849
            CHANNELS 6 Xposition Yposition Zposition Zrotation Xrotation Yrotation
            JOINT rForeArm
            {
              OFFSET -28.3255 -0.9759 2.2888
              CHANNELS 6 Xposition Yposition Zposition Zrotation Xrotation Yrotation
              JOINT rHand
              {
                OFFSET -22.1583 -0.53 10.8316
                CHANNELS 6 Xposition Yposition Zposition Zrotation Xrotation Yrotation
                JOINT rThumb1
                {
                  OFFSET -0.786 0.112 2.5817
                  CHANNELS 6 Xposition Yposition Zposition Zrotation Xrotation Yrotation
                  JOINT rThumb2
                  {
                    OFFSET -0.3601 -0.878 4.2331
                    CHANNELS 6 Xposition Yposition Zposition Zrotation Xrotation Yrotation
                    JOINT rThumb2_End
                    {
                      OFFSET -1.8127 -1.216 2.2227
                      CHANNELS 6 Xposition Yposition Zposition Zrotation Xrotation Yrotation
                      End Site
                      {
                        OFFSET -0.0181 -0.0122 0.0222
                      }
                    }
                  }
                }
                JOINT rCarpal1
                {
                  OFFSET -0.9571 1.114 1.7695
                  CHANNELS 6 Xposition Yposition Zposition Zrotation Xrotation Yrotation
                  JOINT rIndex1
                  {
                    OFFSET -4.1246 0.487 4.1451
                    CHANNELS 6 Xposition Yposition Zposition Zrotation Xrotation Yrotation
                    JOINT rIndex2
                    {
                      OFFSET -3.4052 -1.454 2.7682
                      CHANNELS 6 Xposition Yposition Zposition Zrotation Xrotation Yrotation
                      JOINT rIndex2_End
                      {
                        OFFSET -1.4531 -1.795 1.2713
                        CHANNELS 6 Xposition Yposition Zposition Zrotation Xrotation Yrotation
                        End Site
                        {
                          OFFSET -0.0145 -0.018 0.0127
                        }
                      }
                    }
                  }
                  JOINT rMid1
                  {
                    OFFSET -5.6954 0.21 2.1184
                    CHANNELS 6 Xposition Yposition Zposition Zrotation Xrotation Yrotation
                    JOINT rMid2
                    {
                      OFFSET -3.9766 -1.54 2.3863
                      CHANNELS 6 Xposition Yposition Zposition Zrotation Xrotation Yrotation
                      JOINT rMid2_End
                      {
                        OFFSET -1.4042 -1.926 1.125
                        CHANNELS 6 Xposition Yposition Zposition Zrotation Xrotation Yrotation
                        End Site
                        {
                          OFFSET -0.014 -0.0193 0.0113
                        }
                      }
                    }
                  }
                }
                JOINT rCarpal2
                {
                  OFFSET -2.0956 0.66 -0.3894
                  CHANNELS 6 Xposition Yposition Zposition Zrotation Xrotation Yrotation
                  JOINT rRing1
                  {
                    OFFSET -5.0395 -0.09 2.4971
                    CHANNELS 6 Xposition Yposition Zposition Zrotation Xrotation Yrotation
                    JOINT rRing2
                    {
                      OFFSET -3.7921 -1.552 1.4806
                      CHANNELS 6 Xposition Yposition Zposition Zrotation Xrotation Yrotation
                      JOINT rRing2_End
                      {
                        OFFSET -1.4655 -1.808 0.9609
                        CHANNELS 6 Xposition Yposition Zposition Zrotation Xrotation Yrotation
                        End Site
                        {
                          OFFSET -0.0147 -0.0181 0.0096
                        }
                      }
                    }
                  }
                  JOINT rPinky1
                  {
                    OFFSET -4.9141 -1.269 0.3592
                    CHANNELS 6 Xposition Yposition Zposition Zrotation Xrotation Yrotation
                    JOINT rPinky2
                    {
                      OFFSET -3.1477 -1.685 0.8462
                      CHANNELS 6 Xposition Yposition Zposition Zrotation Xrotation Yrotation
                      JOINT rPinky2_End
                      {
                        OFFSET -0.8055 -1.585 0.7955
                        CHANNELS 6 Xposition Yposition Zposition Zrotation Xrotation Yrotation
                        End Site
                        {
                          OFFSET -0.0081 -0.0158 0.008
                        }
                      }
                    }
                  }
                }
              }
            }
          }
        }
      }
    }
  }
  JOINT lThigh
  {
    OFFSET 8.367 -8.2066 0.5982
    CHANNELS 6 Xposition Yposition Zposition Zrotation Xrotation Yrotation
    JOINT lShin
    {
      OFFSET 2.1923 -43.463 -0.4932
      CHANNELS 6 Xposition Yposition Zposition Zrotation Xrotation Yrotation
      JOINT lFoot
      {
        OFFSET 0.7333 -45.8593 -2.6451
        CHANNELS 6 Xposition Yposition Zposition Zrotation Xrotation Yrotation
        End Site
        {
          OFFSET 2.6618 -4.2699 12.3931
        }
      }
    }
  }
  JOINT rThigh
  {
    OFFSET -8.367 -8.2066 0.5982
    CHANNELS 6 Xposition Yposition Zposition Zrotation Xrotation Yrotation
    JOINT rShin
    {
      OFFSET -2.1923 -43.463 -0.4931
      CHANNELS 6 Xposition Yposition Zposition Zrotation Xrotation Yrotation
      JOINT rFoot
      {
        OFFSET -0.7333 -45.8593 -2.6451
        CHANNELS 6 Xposition Yposition Zposition Zrotation Xrotation Yrotation
        End Site
        {
          OFFSET -2.6618 -4.2699 12.3931
        }
      }
    }
  }
}
MOTION
Frames:	4
Frame Time:	0.0333333
-1.30877 85.893 6.955 -0 -4.86679 -0 0 -1.186 -1.5018 -0.00751842 4.82838 -0.002815 0 9.964 0.2134 -0.0148775 9.65676 -0.00501839 -2.22045e-016 13.134 -3.2573 -0.0148775 9.65675 -0.00501839 0 20.686 -1.6905 2.28619e-008 -5.85245 -2.0961e-008 0 7.238 -0.1237 -4.52361e-009 -0.267536 -2.32204e-009 1.7069 20.075 5.0056 -28.7259 -10.005 0.253076 13.6458 -0.047 -4.849 -34.7122 25.4334 -26.0867 28.3255 -0.9759 2.2888 -10.451 -17.1051 -10.3519 22.1583 -0.53 10.8316 -6.51218 2.57103 0.0273119 0.786 0.112 2.5817 -7.95139e-016 1.59028e-015 -3.18055e-015 0.3601 -0.878 4.2331 7.95139e-016 1.59028e-015 3.18055e-015 1.8127 -1.216 2.2227 -7.95139e-016 0 3.18055e-015 0.9571 1.114 1.7695 -7.95139e-016 -1.59028e-015 -3.18055e-015 4.1246 0.487 4.1451 -2.38542e-015 0 9.54166e-015 3.4052 -1.454 2.7682 1.59028e-015 1.59028e-015 3.18055e-015 1.4531 -1.795 1.2713 7.95139e-016 0 3.18055e-015 5.6954 0.21 2.1184 -2.38542e-015 0 9.54166e-015 3.9766 -1.54 2.3863 1.59028e-015 1.59028e-015 3.18055e-015 1.4042 -1.926 1.125 7.95139e-016 0 3.18055e-015 2.0956 0.66 -0.3894 -7.95139e-016 -1.59028e-015 -3.18055e-015 5.0395 -0.09 2.4971 -2.38542e-015 0 9.54166e-015 3.7921 -1.552 1.4806 1.59028e-015 1.59028e-015 3.18055e-015 1.4655 -1.808 0.9609 7.95139e-016 0 3.18055e-015 4.9141 -1.269 0.3591 -2.38542e-015 0 9.54166e-015 3.1477 -1.685 0.8462 1.59028e-015 1.59028e-015 3.18055e-015 0.8055 -1.585 0.7955 7.95139e-016 0 3.18055e-015 -1.7069 20.075 5.0056 12.9884 13.9364 5.19118 -13.6458 -0.047 -4.849 50.9098 34.4983 30.3469 -28.3255 -0.9759 2.2888 14.1936 -14.1305 29.7048 -22.1583 -0.53 10.8316 -18.5936 -8.23676 -1.73193 -0.786 0.112 2.5817 7.95139e-016 3.18055e-015 -0 -0.3601 -0.878 4.2331 0 0 -1.59028e-015 -1.8127 -1.216 2.2227 -8.82781e-032 -3.18055e-015 -1.59028e-015 -0.9571 1.114 1.7695 7.95139e-016 0 -0 -4.1246 0.487 4.1451 -2.38542e-015 3.18055e-015 -0 -3.4052 -1.454 2.7682 -7.95139e-016 0 -4.77083e-015 -1.4531 -1.795 1.2713 0 0 -3.18055e-015 -5.6954 0.21 2.1184 -2.38542e-015 3.18055e-015 -0 -3.9766 -1.54 2.3863 -7.95139e-016 0 -4.77083e-015 -1.4042 -1.926 1.125 0 0 -3.18055e-015 -2.0956 0.66 -0.3894 7.95139e-016 0 -0 -5.0395 -0.09 2.4971 -2.38542e-015 3.18055e-015 -0 -3.7921 -1.552 1.4806 -7.95139e-016 0 -4.77083e-015 -1.4655 -1.808 0.9609 0 0 -3.18055e-015 -4.9141 -1.269 0.3592 -2.38542e-015 3.18055e-015 -0 -3.1477 -1.685 0.8462 -7.95139e-016 0 -4.77083e-015 -0.8055 -1.585 0.7955 0 0 -3.18055e-015 8.367 -8.2066 0.5982 12.1168 2.25602 12.0853 2.1923 -43.463 -0.4932 0.121666 3.10572 -0.24744 0.7333 -45.8593 -2.6451 -10.7343 9.80743 7.20877 -8.367 -8.2066 0.5982 0.649993 7.90565 -10.0021 -2.1923 -43.463 -0.4931 3.00305 -2.31259 0.279503 -0.7333 -45.8593 -2.6451 8.71668 3.89881 -6.82453 
-1.30582 85.8976 7.01939 -0 -5.00071 -0 0 -1.186 -1.5018 0 4.79913 -0 0 9.964 0.2134 0 9.59827 -0 0 13.134 -3.2573 0 9.59827 -0 0 20.686 -1.6905 -0 -6.00227 -0 0 7.238 -0.1237 -0 -0.267539 -0 1.7069 20.075 5.0056 -29.0017 -10.0015 -0.00254685 13.6458 -0.047 -4.849 -34.6811 25.6749 -25.4309 28.3255 -0.9759 2.2888 -10.2874 -17.0099 -10.2175 22.1583 -0.53 10.8316 -6.51219 2.57103 0.0273114 0.786 0.112 2.5817 -7.95139e-016 6.36111e-015 3.18055e-015 0.3601 -0.878 4.2331 -7.95139e-016 4.77083e-015 3.18055e-015 1.8127 -1.216 2.2227 -1.59028e-015 3.18055e-015 -0 0.9571 1.114 1.7695 -7.95139e-016 3.18055e-015 3.18055e-015 4.1246 0.487 4.1451 -3.18055e-015 -1.59028e-015 1.27222e-014 3.4052 -1.454 2.7682 7.95139e-016 3.18055e-015 -0 1.4531 -1.795 1.2713 7.95139e-016 4.77083e-015 -0 5.6954 0.21 2.1184 -3.18055e-015 -1.59028e-015 1.27222e-014 3.9766 -1.54 2.3863 7.95139e-016 3.18055e-015 -0 1.4042 -1.926 1.125 7.95139e-016 4.77083e-015 -0 2.0956 0.66 -0.3894 -7.95139e-016 3.18055e-015 3.18055e-015 5.0395 -0.09 2.4971 -3.18055e-015 -1.59028e-015 1.27222e-014 3.7921 -1.552 1.4806 7.95139e-016 3.18055e-015 -0 1.4655 -1.808 0.9609 7.95139e-016 4.77083e-015 -0 4.9141 -1.269 0.3591 -3.18055e-015 -1.59028e-015 1.27222e-014 3.1477 -1.685 0.8462 7.95139e-016 3.18055e-015 -0 0.8055 -1.585 0.7955 7.95139e-016 4.77083e-015 -0 -1.7069 20.075 5.0056 13.1229 14.3268 5.20321 -13.6458 -0.047 -4.849 50.8272 34.4493 30.2874 -28.3255 -0.9759 2.2888 14.1563 -13.9436 30.1344 -22.1583 -0.53 10.8316 -19.2903 -8.51674 -1.84669 -0.786 0.112 2.5817 2.38542e-015 3.18055e-015 -6.36111e-015 -0.3601 -0.878 4.2331 2.38542e-015 0 -0 -1.8127 -1.216 2.2227 7.95139e-016 3.18055e-015 -3.18055e-015 -0.9571 1.114 1.7695 1.59028e-015 3.18055e-015 -3.18055e-015 -4.1246 0.487 4.1451 -1.76556e-031 3.18055e-015 3.18055e-015 -3.4052 -1.454 2.7682 1.59028e-015 -3.18055e-015 3.18055e-015 -1.4531 -1.795 1.2713 7.95139e-016 -3.18055e-015 -0 -5.6954 0.21 2.1184 -1.76556e-031 3.18055e-015 3.18055e-015 -3.9766 -1.54 2.3863 1.59028e-015 -3.18055e-015 3.18055e-015 -1.4042 -1.926 1.125 7.95139e-016 -3.18055e-015 -0 -2.0956 0.66 -0.3894 1.59028e-015 3.18055e-015 -3.18055e-015 -5.0395 -0.09 2.4971 -1.76556e-031 3.18055e-015 3.18055e-015 -3.7921 -1.552 1.4806 1.59028e-015 -3.18055e-015 3.18055e-015 -1.4655 -1.808 0.9609 7.95139e-016 -3.18055e-015 -0 -4.9141 -1.269 0.3592 -1.76556e-031 3.18055e-015 3.18055e-015 -3.1477 -1.685 0.8462 1.59028e-015 -3.18055e-015 3.18055e-015 -0.8055 -1.585 0.7955 7.95139e-016 -3.18055e-015 -0 8.367 -8.2066 0.5982 12.1169 2.42588 12.1089 2.1923 -43.463 -0.4932 0.0406757 3.12679 -0.253245 0.7333 -45.8593 -2.6451 -10.7605 9.59227 7.13557 -8.367 -8.2066 0.5982 0.622329 8.05843 -10.0233 -2.1923 -43.463 -0.4931 3.00386 -2.16761 0.302336 -0.7333 -45.8593 -2.6451 8.71469 3.73657 -6.80995 
-1.30877 85.893 6.955 -0 -4.86679 -0 0 -1.186 -1.5018 -0.00751842 4.82838 -0.002815 -2.22045e-016 9.964 0.2134 -0.0148775 9.65675 -0.00501839 -2.22045e-016 13.134 -3.2573 -0.0148775 9.65675 -0.00501839 0 20.686 -1.6905 4.19122e-008 -5.85245 -2.22443e-008 2.22045e-016 7.238 -0.1237 -6.33653e-009 -0.267536 -4.28528e-009 1.7069 20.075 5.0056 -28.7259 -10.005 0.253075 13.6458 -0.047 -4.849 -34.7122 25.4334 -26.0867 28.3255 -0.9759 2.2888 -10.451 -17.1051 -10.3519 22.1583 -0.53 10.8316 -6.51218 2.57103 0.0273131 0.786 0.112 2.5817 -7.95139e-016 0 -0 0.3601 -0.878 4.2331 -7.95139e-016 1.59028e-015 3.18055e-015 1.8127 -1.216 2.2227 -7.95139e-016 1.59028e-015 3.18055e-015 0.9571 1.114 1.7695 0 0 -3.18055e-015 4.1246 0.487 4.1451 -2.38542e-015 1.59028e-015 6.36111e-015 3.4052 -1.454 2.7682 -3.53113e-031 3.18055e-015 6.36111e-015 1.4531 -1.795 1.2713 -7.95139e-016 0 3.18055e-015 5.6954 0.21 2.1184 -2.38542e-015 1.59028e-015 6.36111e-015 3.9766 -1.54 2.3863 -3.53113e-031 3.18055e-015 6.36111e-015 1.4042 -1.926 1.125 -7.95139e-016 0 3.18055e-015 2.0956 0.66 -0.3894 0 0 -3.18055e-015 5.0395 -0.09 2.4971 -2.38542e-015 1.59028e-015 6.36111e-015 3.7921 -1.552 1.4806 -3.53113e-031 3.18055e-015 6.36111e-015 1.4655 -1.808 0.9609 -7.95139e-016 0 3.18055e-015 4.9141 -1.269 0.3591 -2.38542e-015 1.59028e-015 6.36111e-015 3.1477 -1.685 0.8462 -3.53113e-031 3.18055e-015 6.36111e-015 0.8055 -1.585 0.7955 -7.95139e-016 0 3.18055e-015 -1.7069 20.075 5.0056 12.9884 13.9364 5.19118 -13.6458 -0.047 -4.849 50.9098 34.4983 30.3469 -28.3255 -0.9759 2.2888 14.1936 -14.1305 29.7048 -22.1583 -0.53 10.8316 -18.5936 -8.23678 -1.73195 -0.786 0.112 2.5817 -5.21931e-006 1.12041e-006 1.99923e-006 -0.3601 -0.878 4.2331 3.18055e-015 3.18055e-015 -6.36111e-015 -1.8127 -1.216 2.2227 1.59028e-015 -6.36111e-015 -4.77083e-015 -0.9571 1.114 1.7695 -1.59028e-015 -6.36111e-015 -4.77083e-015 -4.1246 0.487 4.1451 -5.21931e-006 1.12041e-006 1.99923e-006 -3.4052 -1.454 2.7682 7.95139e-016 3.18055e-015 -9.54166e-015 -1.4531 -1.795 1.2713 1.59028e-015 0 -4.77083e-015 -5.6954 0.21 2.1184 -5.21931e-006 1.12041e-006 1.99923e-006 -3.9766 -1.54 2.3863 7.95139e-016 3.18055e-015 -9.54166e-015 -1.4042 -1.926 1.125 1.59028e-015 0 -4.77083e-015 -2.0956 0.66 -0.3894 -1.59028e-015 -6.36111e-015 -4.77083e-015 -5.0395 -0.09 2.4971 -5.21931e-006 1.12041e-006 1.99923e-006 -3.7921 -1.552 1.4806 7.95139e-016 3.18055e-015 -9.54166e-015 -1.4655 -1.808 0.9609 1.59028e-015 0 -4.77083e-015 -4.9141 -1.269 0.3592 -5.21931e-006 1.12041e-006 1.99923e-006 -3.1477 -1.685 0.8462 7.95139e-016 3.18055e-015 -9.54166e-015 -0.8055 -1.585 0.7955 1.59028e-015 0 -4.77083e-015 8.367 -8.2066 0.5982 12.1168 2.25602 12.0853 2.1923 -43.463 -0.4932 0.121665 3.10572 -0.247444 0.7333 -45.8593 -2.6451 -10.7343 9.80743 7.20877 -8.367 -8.2066 0.5982 0.64671 7.89255 -10.0018 -2.1923 -43.463 -0.4931 3.00402 -2.28169 0.280012 -0.7333 -45.8593 -2.6451 8.71642 3.8814 -6.82295 
-1.31368 85.8854 6.84764 -0 -4.6436 -0 0 -1.186 -1.5018 -0.0199909 4.87716 -0.00763231 -2.22045e-016 9.964 0.2134 -0.0395432 9.75432 -0.013624 -2.22045e-016 13.134 -3.2573 -0.0395432 9.75433 -0.013624 0 20.686 -1.6905 4.09198e-007 -5.60249 1.04306e-007 0 7.238 -0.1237 9.43096e-011 -0.267533 -5.75132e-009 1.7069 20.075 5.0056 -28.2662 -10.0093 0.679178 13.6458 -0.047 -4.849 -34.772 25.0287 -27.1769 28.3255 -0.9759 2.2888 -10.7247 -17.2629 -10.5765 22.1583 -0.53 10.8316 -6.51219 2.57103 0.0273089 0.786 0.112 2.5817 7.95139e-016 0 -0 0.3601 -0.878 4.2331 -0 -1.59028e-015 -0 1.8127 -1.216 2.2227 -7.95139e-016 -3.18055e-015 -0 0.9571 1.114 1.7695 7.95139e-016 3.18055e-015 -0 4.1246 0.487 4.1451 -1.59028e-015 -1.59028e-015 6.36111e-015 3.4052 -1.454 2.7682 7.95139e-016 -1.59028e-015 3.18055e-015 1.4531 -1.795 1.2713 7.95139e-016 -1.59028e-015 3.18055e-015 5.6954 0.21 2.1184 -1.59028e-015 -1.59028e-015 6.36111e-015 3.9766 -1.54 2.3863 7.95139e-016 -1.59028e-015 3.18055e-015 1.4042 -1.926 1.125 7.95139e-016 -1.59028e-015 3.18055e-015 2.0956 0.66 -0.3894 7.95139e-016 3.18055e-015 -0 5.0395 -0.09 2.4971 -1.59028e-015 -1.59028e-015 6.36111e-015 3.7921 -1.552 1.4806 7.95139e-016 -1.59028e-015 3.18055e-015 1.4655 -1.808 0.9609 7.95139e-016 -1.59028e-015 3.18055e-015 4.9141 -1.269 0.3591 -1.59028e-015 -1.59028e-015 6.36111e-015 3.1477 -1.685 0.8462 7.95139e-016 -1.59028e-015 3.18055e-015 0.8055 -1.585 0.7955 7.95139e-016 -1.59028e-015 3.18055e-015 -1.7069 20.075 5.0056 12.7642 13.2855 5.17035 -13.6458 -0.047 -4.849 51.0473 34.5798 30.4462 -28.3255 -0.9759 2.2888 14.252 -14.4435 28.988 -22.1583 -0.53 10.8316 -17.4337 -7.76682 -1.54801 -0.786 0.112 2.5817 -4.27808e-007 -1.04169e-006 4.14862e-007 -0.3601 -0.878 4.2331 -1.59028e-015 -3.18055e-015 3.18055e-015 -1.8127 -1.216 2.2227 7.62436e-007 3.39609e-006 -4.64561e-007 -0.9571 1.114 1.7695 -1.59028e-015 -6.36111e-015 -3.18055e-015 -4.1246 0.487 4.1451 -4.27808e-007 -1.04169e-006 4.14862e-007 -3.4052 -1.454 2.7682 7.95139e-016 0 -0 -1.4531 -1.795 1.2713 7.62436e-007 3.39609e-006 -4.64561e-007 -5.6954 0.21 2.1184 -4.27808e-007 -1.04169e-006 4.14862e-007 -3.9766 -1.54 2.3863 7.95139e-016 0 -0 -1.4042 -1.926 1.125 7.62436e-007 3.39609e-006 -4.64561e-007 -2.0956 0.66 -0.3894 -1.59028e-015 -6.36111e-015 -3.18055e-015 -5.0395 -0.09 2.4971 -4.27808e-007 -1.04169e-006 4.14862e-007 -3.7921 -1.552 1.4806 7.95139e-016 0 -0 -1.4655 -1.808 0.9609 7.62436e-007 3.39609e-006 -4.64561e-007 -4.9141 -1.269 0.3592 -4.27808e-007 -1.04169e-006 4.14862e-007 -3.1477 -1.685 0.8462 7.95139e-016 0 -0 -0.8055 -1.585 0.7955 7.62436e-007 3.39609e-006 -4.64561e-007 8.367 -8.2066 0.5982 12.1164 1.97338 12.046 2.1923 -43.463 -0.4932 0.256639 3.06963 -0.23767 0.7333 -45.8593 -2.6451 -10.6918 10.1665 7.331 -8.367 -8.2066 0.5982 0.676303 7.54146 -9.9635 -2.1923 -43.463 -0.4931 3.0023 -2.33529 0.241822 -0.7333 -45.8593 -2.6451 8.7183 4.06158 -6.83912 
